<svg viewBox = "0 0 88 88" width="88" height="88" xmlns="http://www.w3.org/2000/svg"><g transform="matrix(1 0 0 1 44 44)"  ><g style=""   ><g transform="matrix(-0.5 0.87 -0.87 -0.5 13.43 14.35)"  ><rect style="stroke: none; stroke-width: 1; stroke-dasharray: none; stroke-linecap: butt; stroke-dashoffset: 0; stroke-linejoin: miter; stroke-miterlimit: 4; fill: rgb(232,97,140); fill-rule: nonzero; opacity: 1;"  x="-5.009" y="-15.52785" rx="5.00899" ry="5.00899" width="10.018" height="31.0557" /></g><g transform="matrix(0.5 -0.87 0.87 0.5 -10.29 -16.69)"  ><rect style="stroke: none; stroke-width: 1; stroke-dasharray: none; stroke-linecap: butt; stroke-dashoffset: 0; stroke-linejoin: miter; stroke-miterlimit: 4; fill: rgb(232,97,140); fill-rule: nonzero; opacity: 1;"  x="-5.009" y="-15.52785" rx="5.00899" ry="5.00899" width="10.018" height="31.0557" /></g><g transform="matrix(0.87 0.5 -0.5 0.87 17.1 -13.03)"  ><rect style="stroke: none; stroke-width: 1; stroke-dasharray: none; stroke-linecap: butt; stroke-dashoffset: 0; stroke-linejoin: miter; stroke-miterlimit: 4; fill: rgb(34,204,178); fill-rule: nonzero; opacity: 1;"  x="-5.009" y="-15.52785" rx="5.00899" ry="5.00899" width="10.018" height="31.0557" /></g><g transform="matrix(-0.87 -0.5 0.5 -0.87 -13.95 10.69)"  ><rect style="stroke: none; stroke-width: 1; stroke-dasharray: none; stroke-linecap: butt; stroke-dashoffset: 0; stroke-linejoin: miter; stroke-miterlimit: 4; fill: rgb(34,204,178); fill-rule: nonzero; opacity: 1;"  x="-5.009" y="-15.52785" rx="5.00899" ry="5.00899" width="10.018" height="31.0557" /></g><g transform="matrix(-0.87 -0.5 0.5 -0.87 -3.01 29.05)"  ><rect style="stroke: none; stroke-width: 1; stroke-dasharray: none; stroke-linecap: butt; stroke-dashoffset: 0; stroke-linejoin: miter; stroke-miterlimit: 4; fill: rgb(99,106,232); fill-rule: nonzero; opacity: 1;"  x="-8.0144" y="-8.0144" rx="8.01438" ry="8.01438" width="16.0288" height="16.0288" /></g><g transform="matrix(0.87 0.5 -0.5 0.87 5.01 -29.05)"  ><rect style="stroke: none; stroke-width: 1; stroke-dasharray: none; stroke-linecap: butt; stroke-dashoffset: 0; stroke-linejoin: miter; stroke-miterlimit: 4; fill: rgb(99,106,232); fill-rule: nonzero; opacity: 1;"  x="-8.0144" y="-8.0144" rx="8.01438" ry="8.01438" width="16.0288" height="16.0288" /></g><g transform="matrix(-0.5 0.87 -0.87 -0.5 29.05 3.01)"  ><rect style="stroke: none; stroke-width: 1; stroke-dasharray: none; stroke-linecap: butt; stroke-dashoffset: 0; stroke-linejoin: miter; stroke-miterlimit: 4; fill: rgb(99,106,232); fill-rule: nonzero; opacity: 1;"  x="-8.0144" y="-8.0144" rx="8.01438" ry="8.01438" width="16.0288" height="16.0288" /></g><g transform="matrix(0.5 -0.87 0.87 0.5 -28.05 -2)"  ><rect style="stroke: none; stroke-width: 1; stroke-dasharray: none; stroke-linecap: butt; stroke-dashoffset: 0; stroke-linejoin: miter; stroke-miterlimit: 4; fill: rgb(99,106,232); fill-rule: nonzero; opacity: 1;"  x="-8.0144" y="-8.0144" rx="8.01438" ry="8.01438" width="16.0288" height="16.0288" /></g></g></g></svg>